<?xml version="1.0" encoding="UTF-8" standalone="no"?>
<!-- Created with Inkscape (http://www.inkscape.org/) -->

<svg
   width="126.77145mm"
   height="25.1714mm"
   viewBox="0 0 126.77146 25.1714"
   version="1.1"
   id="svg5"
   inkscape:version="1.1.2 (b8e25be833, 2022-02-05)"
   sodipodi:docname="logo.svg"
   xmlns:inkscape="http://www.inkscape.org/namespaces/inkscape"
   xmlns:sodipodi="http://sodipodi.sourceforge.net/DTD/sodipodi-0.dtd"
   xmlns="http://www.w3.org/2000/svg"
   xmlns:svg="http://www.w3.org/2000/svg">
  <sodipodi:namedview
     id="namedview7"
     pagecolor="#ffffff"
     bordercolor="#666666"
     borderopacity="1.0"
     inkscape:pageshadow="2"
     inkscape:pageopacity="0.0"
     inkscape:pagecheckerboard="0"
     inkscape:document-units="mm"
     showgrid="false"
     inkscape:zoom="0.57281846"
     inkscape:cx="348.27788"
     inkscape:cy="116.09263"
     inkscape:window-width="1600"
     inkscape:window-height="830"
     inkscape:window-x="-6"
     inkscape:window-y="-6"
     inkscape:window-maximized="1"
     inkscape:current-layer="text1904" />
  <defs
     id="defs2" />
  <g
     inkscape:label="Layer 1"
     inkscape:groupmode="layer"
     id="layer1"
     transform="translate(-12.979229,-117.6283)">
    <g
       aria-label="embeddabl.es"
       id="text1904"
       style="font-size:25.4px;line-height:1.25;font-family:Heartbreaker;-inkscape-font-specification:Heartbreaker;fill:#7f2aff;stroke-width:0.264583">
      <path
         d="m 23.215428,133.6303 q 0,0.635 -0.4572,1.0922 -0.4572,0.4572 -1.0922,0.4572 -0.2286,0 -0.6858,0.0762 -0.4572,0.0508 -0.6858,0.0508 0.2286,0 -4.190999,-0.1524 0.0254,2.9718 1.7526,2.9718 0.3302,0 0.3302,-0.5334 0,-0.8636 0.965199,-1.397 0.7874,-0.4318 1.7272,-0.4318 1.905,0 1.905,1.3462 0,1.4478 -1.7272,2.8194 -1.7018,1.34619 -3.200399,1.34619 -2.5654,0 -3.8354,-1.95579 -1.0414,-1.6256 -1.0414,-4.318 0,-5.1054 0.6096,-7.874 1.143,-5.207 4.4704,-5.207 2.946399,0 4.190999,3.6068 0.9652,2.794 0.9652,6.0198 z m -3.1242,-1.3716 q -0.1016,-1.6002 -0.508,-3.5306 -0.4826,-2.413 -1.523999,-2.413 -1.524,0 -1.8542,6.223 1.2446,0.0762 3.835399,0.1524 z"
         id="path1753" />
      <path
         d="m 38.760237,130.1251 q 0,-0.2794 -0.1778,3.2766 0.0254,-0.2794 0.0254,5.1816 0,0.8382 -0.762,1.4732 -0.7366,0.635 -1.6002,0.635 -1.2446,0 -1.2446,-1.1938 0.0762,-0.9398 0.4318,-5.6896 0.3048,-3.8354 0.1524,-4.5466 -1.2446,0.0508 -1.905,0.5842 -0.1016,0.5842 -0.3048,2.1082 l 0.4826,8.9408 q 0.0508,0.86359 -0.7874,1.42239 -0.7366,0.4572 -1.651,0.4572 -1.7526,0 -1.6764,-1.3716 l 0.508,-9.55039 q 0.1524,-1.4986 0.4826,-5.4864 -1.4732,0.8128 -2.6162,2.4638 -1.1938,1.778 -1.1938,3.3528 0,0.1524 -0.0254,0.3048 -0.1778,5.461 -0.1778,6.7818 0,0.6858 -0.4572,1.1176 -0.4318,0.4318 -1.1176,0.4318 -0.6858,0 -1.1176,-0.4318 -0.4318,-0.4318 -0.4318,-1.1176 0,-1.778 0.127,-5.3086 0.127,-3.556 0.127,-5.334 0,-2.9464 -0.254,-5.1308 -0.1016,-0.8382 0.5842,-1.397 0.6096,-0.508 1.4732,-0.508 1.4224,0 1.5494,1.27 0.0508,0.4064 -0.2286,2.0574 2.286,-2.4892 4.8006,-2.4892 2.1082,0 2.1082,3.2512 l -0.0254,0.1778 q 0.9144,-0.2286 1.9558,-0.2286 2.9464,0 2.9464,4.4958 z"
         id="path1755" />
      <path
         d="m 51.257031,135.5861 q 0,2.2098 -1.27,3.6322 -1.2954,1.4986 -3.5052,1.4986 -2.0066,0 -4.3434,-1.143 -0.381,0.9398 -1.3716,0.9398 -0.6604,0 -1.143,-0.4318 -0.4826,-0.4318 -0.4826,-1.0922 0,-0.1778 0.0762,-0.4572 0.2286,-0.8382 0.2286,-2.794 0,-0.4826 -0.0254,-1.6256 -0.0254,-1.0414 -0.0254,-1.6256 0.0254,-2.2606 -0.0762,-6.35 -0.127,-4.445 -0.127,-6.3754 0,-0.889 0.9398,-1.4224 0.7874,-0.4318 1.7526,-0.4318 1.8034,0 1.8034,1.3208 0,1.9812 -0.5842,5.8166 -0.5842,3.9116 -0.6096,5.8166 1.2446,0.127 3.683,0.381 2.2606,0.254 3.5052,1.1176 1.5748,1.0668 1.5748,3.2258 z m -3.1242,0.508 q 0,-0.9144 -1.7018,-1.1684 -0.3556,-0.0508 -3.8862,-0.4064 0.0254,1.1176 0.0254,1.7018 v 0.5842 q 2.3876,1.27 3.9116,1.27 1.651,0 1.651,-1.9812 z"
         id="path1757" />
      <path
         d="m 61.97585,133.6303 q 0,0.635 -0.4572,1.0922 -0.4572,0.4572 -1.0922,0.4572 -0.2286,0 -0.6858,0.0762 -0.4572,0.0508 -0.6858,0.0508 0.2286,0 -4.191,-0.1524 0.0254,2.9718 1.7526,2.9718 0.3302,0 0.3302,-0.5334 0,-0.8636 0.9652,-1.397 0.7874,-0.4318 1.7272,-0.4318 1.905,0 1.905,1.3462 0,1.4478 -1.7272,2.8194 -1.7018,1.34619 -3.2004,1.34619 -2.5654,0 -3.8354,-1.95579 -1.0414,-1.6256 -1.0414,-4.318 0,-5.1054 0.6096,-7.874 1.143,-5.207 4.4704,-5.207 2.9464,0 4.191,3.6068 0.9652,2.794 0.9652,6.0198 z m -3.1242,-1.3716 q -0.1016,-1.6002 -0.508,-3.5306 -0.4826,-2.413 -1.524,-2.413 -1.524,0 -1.8542,6.223 1.2446,0.0762 3.8354,0.1524 z"
         id="path1759" />
      <path
         d="m 73.355059,119.7873 q 0,1.8034 -0.5588,5.5626 -0.5334,3.7592 -0.5334,5.6642 0,0.7112 -0.0762,2.159 -0.0508,1.4224 -0.0508,2.1336 0,2.6416 0.4572,3.2766 0.3048,0.4064 0.3048,0.8636 0,0.635 -0.508,1.0668 -0.508,0.4318 -1.142999,0.4318 -0.9652,0 -1.5748,-1.016 -0.762,0.2286 -2.2352,0.2286 -4.953,0 -4.953,-3.3274 0,-2.5908 1.2192,-4.0386 1.3208,-1.524 3.8862,-1.524 0.762,0 1.5494,0.1524 v -0.4064 q 0,-1.0414 -0.0762,-3.0988 -0.0762,-2.0574 -0.0762,-3.0988 0,-2.667 0.4318,-4.8006 0.1524,-0.7112 0.8382,-1.1176 0.6096,-0.381 1.396999,-0.381 0.6604,0 1.1684,0.3302 0.5334,0.3048 0.5334,0.9398 z m -4.419599,15.2654 q -0.7112,-0.1524 -1.3462,-0.1524 -1.2192,0 -1.651,0.635 -0.3302,0.4826 -0.3302,1.8034 0.3048,0.1778 1.8288,0.1778 1.3462,0 1.4224,-0.1016 l 0.0508,-0.0254 q -0.0508,-0.9652 0.0254,-2.3368 z"
         id="path1761" />
      <path
         d="m 83.74367,119.7873 q 0,1.8034 -0.5588,5.5626 -0.5334,3.7592 -0.5334,5.6642 0,0.7112 -0.0762,2.159 -0.0508,1.4224 -0.0508,2.1336 0,2.6416 0.4572,3.2766 0.3048,0.4064 0.3048,0.8636 0,0.635 -0.508,1.0668 -0.508,0.4318 -1.143,0.4318 -0.9652,0 -1.5748,-1.016 -0.762,0.2286 -2.2352,0.2286 -4.953,0 -4.953,-3.3274 0,-2.5908 1.2192,-4.0386 1.3208,-1.524 3.8862,-1.524 0.762,0 1.5494,0.1524 v -0.4064 q 0,-1.0414 -0.0762,-3.0988 -0.0762,-2.0574 -0.0762,-3.0988 0,-2.667 0.4318,-4.8006 0.1524,-0.7112 0.8382,-1.1176 0.6096,-0.381 1.397,-0.381 0.6604,0 1.1684,0.3302 0.5334,0.3048 0.5334,0.9398 z m -4.4196,15.2654 q -0.7112,-0.1524 -1.3462,-0.1524 -1.2192,0 -1.651,0.635 -0.3302,0.4826 -0.3302,1.8034 0.3048,0.1778 1.8288,0.1778 1.3462,0 1.4224,-0.1016 l 0.0508,-0.0254 q -0.0508,-0.9652 0.0254,-2.3368 z"
         id="path1763" />
      <path
         d="m 95.122881,126.7215 q 0,2.286 -0.9906,6.5532 -1.0414,4.3942 -1.0922,6.5532 0.3556,0.4318 0.3556,0.9652 0,0.63499 -0.4826,1.09219 -0.4826,0.4826 -1.1176,0.4826 -1.2192,0 -1.7018,-1.44779 -5.2578,-0.1524 -5.2578,-3.7846 0,-1.8034 1.5494,-2.9464 1.3462,-0.9906 2.8194,-0.9906 0.254,0 1.651,0.2794 1.143,-4.6228 1.143,-6.7564 0,-1.4224 -0.508,-2.0066 -0.508,-0.5842 -1.8796,-0.5842 -2.032,0 -2.032,2.9972 0,0.508 0.0762,1.5494 0.0762,1.0414 0.0762,1.5494 0,0.9398 -1.0414,1.5494 -0.889,0.5334 -1.8796,0.5334 -1.5494,0 -1.5494,-1.1938 0,-3.9116 1.143,-6.6802 1.6256,-3.937 5.207,-3.937 2.7178,0 4.1656,1.8034 1.3462,1.651 1.3462,4.4196 z m -4.9276,10.2616 q -0.635,-0.1524 -0.9906,-0.1524 -0.381,0 -0.762,0.2286 -0.4826,0.254 -0.4826,0.5842 0,0.7112 2.0574,0.6858 0.0762,-0.635 0.1778,-1.3462 z"
         id="path1765" />
      <path
         d="m 107.36567,135.5861 q 0,2.2098 -1.27,3.6322 -1.2954,1.4986 -3.5052,1.4986 -2.0066,0 -4.343398,-1.143 -0.381,0.9398 -1.3716,0.9398 -0.6604,0 -1.143,-0.4318 -0.4826,-0.4318 -0.4826,-1.0922 0,-0.1778 0.0762,-0.4572 0.2286,-0.8382 0.2286,-2.794 0,-0.4826 -0.0254,-1.6256 -0.0254,-1.0414 -0.0254,-1.6256 0.0254,-2.2606 -0.0762,-6.35 -0.127,-4.445 -0.127,-6.3754 0,-0.889 0.9398,-1.4224 0.7874,-0.4318 1.7526,-0.4318 1.8034,0 1.8034,1.3208 0,1.9812 -0.5842,5.8166 -0.5842,3.9116 -0.6096,5.8166 1.2446,0.127 3.682998,0.381 2.2606,0.254 3.5052,1.1176 1.5748,1.0668 1.5748,3.2258 z m -3.1242,0.508 q 0,-0.9144 -1.7018,-1.1684 -0.3556,-0.0508 -3.886198,-0.4064 0.0254,1.1176 0.0254,1.7018 v 0.5842 q 2.387598,1.27 3.911598,1.27 1.651,0 1.651,-1.9812 z"
         id="path1767" />
      <path
         d="m 111.37889,121.6161 q -0.2286,2.413 -0.2286,2.921 0,2.4638 -0.0508,7.2644 l -0.0508,7.1628 q 0,0.6858 -0.4572,1.1176 -0.4318,0.4572 -1.1176,0.4572 -0.6858,0 -1.1176,-0.4572 -0.4318,-0.4318 -0.4318,-1.1176 0,-2.3622 0.0508,-7.1628 l 0.0508,-7.2644 q 0,-3.3782 -0.2794,-4.4704 -0.0508,-0.2032 -0.0508,-0.3556 0,-0.8382 0.7366,-1.4478 0.762,-0.635 1.6256,-0.635 1.1938,0 1.397,1.5494 0.1016,0.6858 -0.0762,2.4384 z"
         id="path1769" />
      <path
         d="m 117.42409,136.7799 q 0,1.1176 -0.762,2.1336 -0.762,1.016 -1.8542,1.016 -1.1176,0 -2.0828,-0.8128 -0.9652,-0.8128 -0.9652,-1.905 0,-1.1684 1.0668,-2.1082 1.0922,-0.9398 2.2606,-0.9398 1.778,0 1.9558,1.3208 0.1016,0.1778 0.1778,0.4572 0.2032,0.5334 0.2032,0.8382 z"
         id="path1771" />
      <path
         d="m 128.16827,133.6303 q 0,0.635 -0.4572,1.0922 -0.4572,0.4572 -1.0922,0.4572 -0.2286,0 -0.6858,0.0762 -0.4572,0.0508 -0.6858,0.0508 0.2286,0 -4.191,-0.1524 0.0254,2.9718 1.7526,2.9718 0.3302,0 0.3302,-0.5334 0,-0.8636 0.9652,-1.397 0.7874,-0.4318 1.7272,-0.4318 1.905,0 1.905,1.3462 0,1.4478 -1.7272,2.8194 -1.7018,1.34619 -3.2004,1.34619 -2.5654,0 -3.8354,-1.95579 -1.0414,-1.6256 -1.0414,-4.318 0,-5.1054 0.6096,-7.874 1.143,-5.207 4.4704,-5.207 2.9464,0 4.191,3.6068 0.9652,2.794 0.9652,6.0198 z m -3.1242,-1.3716 q -0.1016,-1.6002 -0.508,-3.5306 -0.4826,-2.413 -1.524,-2.413 -1.524,0 -1.8542,6.223 1.2446,0.0762 3.8354,0.1524 z"
         id="path1773" />
      <path
         d="m 139.72528,130.6839 q -0.0762,0.889 -0.9652,1.4224 -0.762,0.4572 -1.7018,0.4572 -1.5748,0 -1.5748,-1.143 0,-0.4064 0.7366,-1.7526 0.3302,-0.6096 0.3302,-0.889 0,-1.651 -0.889,-2.8702 -0.9652,-1.3208 -2.5654,-1.3208 -0.9652,0 -1.2192,1.8034 -0.0762,0.5334 -0.0762,2.4892 0,2.5908 0.2032,3.048 0.5334,0.4826 1.6256,0.889 0.6096,0.2032 1.8034,0.6604 2.413,1.016 2.413,3.6068 0,2.0066 -0.9906,3.6322 -1.27,2.08279 -3.6322,2.08279 -1.4986,0 -2.7686,-1.143 -1.27,-1.11759 -1.27,-2.59079 0,-1.1176 0.7366,-2.032 0.762,-0.9144 1.8542,-0.9144 1.0668,0 1.4224,1.0414 0.1016,0.2794 0.1016,0.5588 0,0.9906 -0.9652,1.3716 0.4572,0.5588 0.889,0.5588 0.7874,0 1.1938,-0.9398 0.3048,-0.7112 0.3048,-1.6256 0,-0.7366 -1.5748,-1.2446 -0.3048,-0.0762 -1.0922,-0.3302 -2.3114,-0.8128 -2.9972,-2.667 -0.381,-1.0414 -0.381,-3.9624 0,-3.429 0.5842,-5.1054 0.9906,-2.8194 3.8354,-2.8194 3.0226,0 4.9276,2.6924 1.651,2.3114 1.651,5.1308 0,0.4064 0.0508,0.9652 0.0508,0.4572 0,0.9398 z"
         id="path1775" />
    </g>
  </g>
</svg>
